<svg xmlns="http://www.w3.org/2000/svg" id="Layer_1" viewBox="0 0 18 18"><path fill="#fafafa" d="M0 0h18v18H0z"></path><path fill="#fe5000" d="M3.01 12.35v-6.7s.04-.09.09-.09h.93s.05.01.07.03l3.4 4.53c.05.07.15.03.15-.05V5.64s.04-.09.09-.09h1.04s.09.04.09.09v6.7s-.04.09-.09.09h-.92s-.05-.01-.07-.03l-3.4-4.53c-.05-.07-.15-.03-.15.05v4.43s-.04.09-.09.09H3.1s-.09-.04-.09-.09M12.71 8.82l-2.04-3.16a.2.2 0 0 0-.17-.09H9.14s-.07.03-.07.07c0 .01 0 .02.01.03l2.12 3.3s.01.05 0 .07l-2.12 3.29s-.01.07.02.09c.01 0 .02.01.04.01h1.36c.07 0 .13-.03.17-.09l2.04-3.15c.07-.11.07-.26 0-.37"></path><path fill="#50007f" d="M13.13 9.46s-.06-.04-.09-.02l-.02.02-.56.87a.5.5 0 0 0 0 .55l.95 1.47s.09.08.14.08h1.41s.05-.02.05-.05v-.03l-1.87-2.89ZM13.02 8.53s.06.04.09.02l.02-.02L15 5.64s0-.06-.02-.07h-1.44a.16.16 0 0 0-.14.08l-.95 1.47a.5.5 0 0 0 0 .55l.56.86Z"></path></svg>